<?xml version="1.0" encoding="UTF-8" standalone="no"?>
<svg width="32px" height="32px" viewBox="0 0 32 32" version="1.1" xmlns="http://www.w3.org/2000/svg" xmlns:xlink="http://www.w3.org/1999/xlink" xmlns:sketch="http://www.bohemiancoding.com/sketch/ns">
    <!-- Generator: Sketch 3.0.4 (8053) - http://www.bohemiancoding.com/sketch -->
    <title>heart-gray-icon</title>
    <desc>Created with Sketch.</desc>
    <defs></defs>
    <g id="Views" stroke="none" stroke-width="1" fill="none" fill-rule="evenodd" sketch:type="MSPage">
        <g id="View-Project-(in-progress)-v1.1c" sketch:type="MSArtboardGroup" transform="translate(-568.000000, -152.000000)" fill="#BCBCBC">
            <g id="main-container" sketch:type="MSLayerGroup" transform="translate(88.000000, 152.000000)">
                <g id="heart-vector" transform="translate(480.000000, 0.000000)" sketch:type="MSShapeGroup">
                    <g id="heart-gray-icon">
                        <path d="M12,10 C14,10 15.5,11.5 16,12 C16.5,11.5 18,10 20,10 C23,10 24,12 24,14 C24,18 17,23.5 16,24 C15,23.5 8,18 8,14 C8,12 9.5,10 12,10 Z" id="Shape"></path>
                        <path d="M0,16 C0,24.836556 7.16150109,32 16,32 C24.836556,32 32,24.8384989 32,16 C32,7.163444 24.8384989,0 16,0 C7.163444,0 0,7.16150109 0,16 Z M31,16 C31,24.2855244 24.2849611,31 16,31 C7.71447564,31 1,24.2849611 1,16 C1,7.71447564 7.71503889,1 16,1 C24.2855244,1 31,7.71503889 31,16 Z" id="avatar"></path>
                    </g>
                </g>
            </g>
        </g>
    </g>
</svg>